<?xml version="1.0" encoding="UTF-8" standalone="no"?>
<!-- Created with Inkscape (http://www.inkscape.org/) -->

<svg
   xmlns:dc="http://purl.org/dc/elements/1.1/"
   xmlns:cc="http://creativecommons.org/ns#"
   xmlns:rdf="http://www.w3.org/1999/02/22-rdf-syntax-ns#"
   xmlns:svg="http://www.w3.org/2000/svg"
   xmlns="http://www.w3.org/2000/svg"
   xmlns:sodipodi="http://sodipodi.sourceforge.net/DTD/sodipodi-0.dtd"
   xmlns:inkscape="http://www.inkscape.org/namespaces/inkscape"
   width="297.04691"
   height="161.06516"
   viewBox="0 0 78.593659 42.615155"
   version="1.1"
   id="svg8"
   inkscape:version="0.92.4 (5da689c313, 2019-01-14)"
   sodipodi:docname="touchpad.svg">
  <defs
     id="defs2">
    <filter
       style="color-interpolation-filters:sRGB"
       inkscape:label="Invert"
       id="filter1662">
      <feColorMatrix
         type="hueRotate"
         values="180"
         result="color1"
         id="feColorMatrix1658" />
      <feColorMatrix
         values="-1 0 0 0 1 0 -1 0 0 1 0 0 -1 0 1 -0.21 -0.72 -0.07 2 0 "
         result="color2"
         id="feColorMatrix1660" />
    </filter>
  </defs>
  <sodipodi:namedview
     id="base"
     pagecolor="#ffffff"
     bordercolor="#666666"
     borderopacity="1.0"
     inkscape:pageopacity="0.0"
     inkscape:pageshadow="2"
     inkscape:zoom="2.8"
     inkscape:cx="97.787839"
     inkscape:cy="88.453707"
     inkscape:document-units="px"
     inkscape:current-layer="layer1"
     showgrid="false"
     units="px"
     showguides="false"
     inkscape:window-width="1920"
     inkscape:window-height="1057"
     inkscape:window-x="3832"
     inkscape:window-y="898"
     inkscape:window-maximized="1"
     fit-margin-top="0"
     fit-margin-left="0"
     fit-margin-right="0"
     fit-margin-bottom="0" />
  <metadata
     id="metadata5">
    <rdf:RDF>
      <cc:Work
         rdf:about="">
        <dc:format>image/svg+xml</dc:format>
        <dc:type
           rdf:resource="http://purl.org/dc/dcmitype/StillImage" />
        <dc:title></dc:title>
      </cc:Work>
    </rdf:RDF>
  </metadata>
  <g
     inkscape:label="Layer 1"
     inkscape:groupmode="layer"
     id="layer1"
     transform="translate(-91.393681,-189.30466)">
    <path
       style="display:inline;opacity:1;fill:#242831;fill-opacity:1;stroke:none;stroke-width:0.26499999;stroke-linecap:butt;stroke-linejoin:miter;stroke-miterlimit:4;stroke-dasharray:none;stroke-opacity:1"
       d="m 127.9723,189.30486 c -0.0341,-0.001 -0.0651,5.3e-4 -0.0935,0.0315 -2.58659,0.0122 -6.24113,0.0442 -9.89552,0.15296 -4.71939,0.14046 -9.38354,0.40778 -13.16354,0.68265 -3.77999,0.27487 -6.675646,0.55706 -8.514731,0.76533 -1.839084,0.20826 -2.621232,0.34287 -4.191992,0.59324 -0.215196,0.0343 -0.479274,0.0788 -0.719336,0.11679 0.08236,1.16638 0.195202,2.90259 0.187068,4.05712 -0.004,0.58704 0.953129,6.65412 2.527622,14.28789 1.302999,6.31745 1.449896,7.12788 2.597057,12.87849 0.06805,0.12119 0.259996,0.95625 0.394037,1.48136 0.231052,0.6833 0.366218,0.975 0.464336,1.3205 0.231764,0.41233 0.324517,0.64463 0.540999,1.005 0.233187,0.36036 0.338206,0.49296 0.620312,0.97126 0.382336,0.46158 0.537946,0.68956 0.938126,1.07304 0.437502,0.41925 0.691842,0.60796 1.110522,0.99822 0.53562,0.35684 0.72836,0.44857 0.97889,0.59034 0.24942,0.14114 0.37224,0.22704 0.55749,0.29423 0.42747,0.22587 0.86543,0.44394 1.49457,0.67176 0.57767,0.19748 0.80376,0.28682 1.14233,0.36266 0.33858,0.0843 0.51416,0.13845 0.95218,0.19852 0.3669,0.0503 0.73083,0.0955 1.54377,0.0636 0.7716,0.0332 1.69971,0.009 2.85128,0.008 2.3087,-9.4e-4 5.50367,-0.0208 8.6042,-0.0106 3.10052,0.01 6.00658,-0.003 8.02639,-0.003 3.45635,0 3.23735,-0.0113 3.46121,-0.01 0.22389,-0.001 0.65744,0.01 4.11351,0.01 2.01981,0 4.86046,0.0115 7.96091,0.002 3.10044,-0.01 6.22464,0.0417 8.52742,0.001 1.15139,0.0151 2.0974,0.0367 2.869,0.004 0.77161,0.014 1.29768,0.009 1.82196,-0.0783 0.50067,-0.11076 0.7871,-0.17338 1.06661,-0.26104 0.39765,-0.11134 0.78849,-0.24791 1.07383,-0.35347 0.57068,-0.25836 0.91928,-0.4046 1.45677,-0.69527 0.56109,-0.32611 0.66154,-0.31346 1.13739,-0.67718 0.59397,-0.43463 0.64205,-0.46719 1.10256,-0.93261 0.46052,-0.46543 0.46953,-0.42773 0.8469,-0.91719 0.37736,-0.48946 0.43804,-0.51344 0.72007,-0.99174 0.28203,-0.4783 0.43291,-0.70497 0.61598,-1.13216 0.21852,-0.42719 0.38667,-0.84239 0.4848,-1.18789 0.0981,-0.34551 0.16869,-0.5227 0.21357,-0.76526 0.0962,-0.38429 0.19058,-0.72304 0.21564,-0.9191 0.0339,-0.23032 1.26176,-6.0493 2.65728,-12.99145 1.37149,-6.82267 2.2156,-8.70616 2.53052,-14.28957 -0.008,-1.15247 0.10423,-2.88352 0.18655,-4.04988 -0.2662,-0.0421 -0.55449,-0.0909 -0.79117,-0.12868 -1.57076,-0.25037 -2.35291,-0.38498 -4.19199,-0.59324 -1.83908,-0.20827 -4.73472,-0.49046 -8.51472,-0.76533 -3.77999,-0.27487 -8.44415,-0.54219 -13.16354,-0.68265 -3.65438,-0.10875 -7.30892,-0.14079 -9.89552,-0.15296 -0.0284,-0.0309 -0.0594,-0.0326 -0.0935,-0.0315 -0.25758,0.008 -0.67089,0.0128 -0.87798,0.015 -0.14404,0.002 -0.98825,0.004 -1.80454,0.006 -0.81628,-0.002 -1.65999,-0.005 -1.80402,-0.006 -0.20709,-0.002 -0.62037,-0.007 -0.87799,-0.015 z"
       id="path935-8"
       inkscape:connector-curvature="0"
       sodipodi:nodetypes="ccssccccscccccscscccccscscsccccccccscsccccsccccscccccccc" />
  </g>
  <g
     inkscape:groupmode="layer"
     id="layer2"
     inkscape:label="Layer 2"
     style="display:inline"
     transform="translate(0,-2.1513658)" />
</svg>
