<?xml version="1.0" encoding="UTF-8" standalone="no"?>
<!-- Generator: Adobe Illustrator 19.0.1, SVG Export Plug-In . SVG Version: 6.00 Build 0)  -->

<svg
   xmlns:dc="http://purl.org/dc/elements/1.1/"
   xmlns:cc="http://creativecommons.org/ns#"
   xmlns:rdf="http://www.w3.org/1999/02/22-rdf-syntax-ns#"
   xmlns:svg="http://www.w3.org/2000/svg"
   xmlns="http://www.w3.org/2000/svg"
   xmlns:sodipodi="http://sodipodi.sourceforge.net/DTD/sodipodi-0.dtd"
   xmlns:inkscape="http://www.inkscape.org/namespaces/inkscape"
   version="1.1"
   id="Layer_1"
   x="0px"
   y="0px"
   width="201"
   height="90.800003"
   viewBox="-205 351.2 201.00001 90.8"
   enable-background="new -205 351.2 199.9 90.8"
   xml:space="preserve"
   sodipodi:docname="triggers.svg"
   inkscape:version="0.92.4 (5da689c313, 2019-01-14)"><metadata
   id="metadata39"><rdf:RDF><cc:Work
       rdf:about=""><dc:format>image/svg+xml</dc:format><dc:type
         rdf:resource="http://purl.org/dc/dcmitype/StillImage" /><dc:title></dc:title></cc:Work></rdf:RDF></metadata><defs
   id="defs37">
	
	

	
	

		
		
	
		
		
	<filter
   style="color-interpolation-filters:sRGB;"
   inkscape:label="Invert"
   id="filter1071"><feColorMatrix
     type="hueRotate"
     values="180"
     result="color1"
     id="feColorMatrix1067" /><feColorMatrix
     values="-1 0 0 0 1 0 -1 0 0 1 0 0 -1 0 1 -0.21 -0.72 -0.07 2 0 "
     result="color2"
     id="feColorMatrix1069" /></filter></defs><sodipodi:namedview
   pagecolor="#ffffff"
   bordercolor="#666666"
   borderopacity="1"
   objecttolerance="10"
   gridtolerance="10"
   guidetolerance="10"
   inkscape:pageopacity="0"
   inkscape:pageshadow="2"
   inkscape:window-width="1920"
   inkscape:window-height="1057"
   id="namedview35"
   showgrid="false"
   fit-margin-top="0"
   fit-margin-left="0"
   fit-margin-right="0"
   fit-margin-bottom="0"
   inkscape:zoom="1"
   inkscape:cx="-36.237734"
   inkscape:cy="125.61145"
   inkscape:window-x="3832"
   inkscape:window-y="898"
   inkscape:window-maximized="1"
   inkscape:current-layer="layer2" />


<g
   inkscape:groupmode="layer"
   id="layer1"
   inkscape:label="Triggers"
   style="display:inline" /><g
   inkscape:groupmode="layer"
   id="layer2"
   inkscape:label="Indicators"
   style="display:inline"><g
     id="g1115"><g
       id="g1106"><path
         d="m -4.1,442 c 0,0 -32.7,-3.2 -50.6,-3.2 -17.9,0 -48.3,2.4 -48.3,2.4 0,0 3.1,-44.7 4.8,-52 1.7,-7.3 7.7,-21.3 16.9,-27.9 9.2,-6.6 11.9,-10.1 22.7,-10.1 10.8,0 25.4,6.4 34.6,21.4 9.2,15 19.9,69.4 19.9,69.4 z"
         id="path18-9"
         inkscape:connector-curvature="0"
         style="fill:#e4e4eb;fill-opacity:1" /><path
         d="m -102.5,434.4 c 0,0 25.6335,0.49829 48.5335,0.49829 22.8,0 48.29228,-0.49438 48.29228,-0.49438 C -4.67422,439.10391 -4,442 -4,442 c 0,0 -32.37013,-0.0663 -50.27013,-0.0663 -17.9,0 -48.72987,-0.73375 -48.72987,-0.73375 0,0 0.1,-2.7 0.5,-6.8 z"
         id="path20-2"
         inkscape:connector-curvature="0"
         style="opacity:1;fill:#dadae1;fill-opacity:1"
         sodipodi:nodetypes="csccsccc" /></g><g
       transform="translate(-18.9,1.099953)"
       id="g14"
       style="opacity:0.57099998;fill:#d9d9e0;fill-opacity:1">
		<g
   style="fill:#d9d9e0;fill-opacity:1"
   id="g10">
			<path
   style="fill:#d9d9e0;fill-opacity:1"
   d="m -53.6,416.9 c -2.1,1.7 -3.2,2.6 -3.2,2.6 -1.2,1.2 -1.9,2.7 -2,4.5 h 9.8 v -2.6 h -6.2 c 0.3,-0.5 1,-1.2 2.1,-1.9 1.4,-0.9 2.3,-1.6 2.7,-2.1 0.9,-1 1.3,-2.1 1.3,-3.3 0,-1.4 -0.5,-2.5 -1.4,-3.3 -0.9,-0.8 -2.1,-1.2 -3.5,-1.2 -3.1,0 -4.7,1.7 -4.7,5 h 2.7 c 0,-1.8 0.7,-2.7 2.1,-2.7 1.3,0 2,0.7 2,2.1 0.1,1.1 -0.5,2 -1.7,2.9 z"
   id="path8"
   inkscape:connector-curvature="0" />
		</g>
		<path
   style="fill:#d9d9e0;fill-opacity:1"
   d="m -71.1,418.4 h 3 c 1.5,0 2.3,0.6 2.4,1.9 0.1,1.2 0.2,2.5 0.3,3.8 h 3.3 v -0.4 c -0.5,-0.2 -0.7,-0.7 -0.7,-1.5 0,-0.2 0,-0.4 0.1,-0.8 v -0.7 c 0,-1.7 -0.6,-2.9 -1.8,-3.5 1.4,-0.5 2.2,-1.6 2.2,-3.4 0,-1.3 -0.4,-2.3 -1.3,-3 -0.8,-0.7 -1.9,-1 -3.2,-1 h -7.3 v 14.3 h 3 z m 0,-6.2 h 3.7 c 1.4,0 2.1,0.6 2.1,1.9 0,1.3 -0.8,1.9 -2.3,1.9 h -3.5 z"
   id="path12"
   inkscape:connector-curvature="0" />
	</g></g><g
     id="g1102"><g
       id="g1093"><path
         d="m -204.9,442 c 0,0 32.7,-3.2 50.6,-3.2 17.9,0 48.3,2.4 48.3,2.4 0,0 -3.1,-44.7 -4.8,-52 -1.7,-7.3 -7.7,-21.3 -16.9,-27.9 -9.2,-6.6 -11.9,-10.1 -22.7,-10.1 -10.8,0 -25.4,6.4 -34.6,21.4 -9.2,15 -19.9,69.4 -19.9,69.4 z"
         id="path18"
         inkscape:connector-curvature="0"
         style="fill:#e4e4eb;fill-opacity:1" /><path
         d="m -106.5,434.4 c 0,0 -25.6335,0.49829 -48.5335,0.49829 -22.8,0 -48.29228,-0.49438 -48.29228,-0.49438 -1,4.7 -1.67422,7.59609 -1.67422,7.59609 0,0 32.37013,-0.0663 50.27013,-0.0663 17.9,0 48.72987,-0.73375 48.72987,-0.73375 0,0 -0.1,-2.7 -0.5,-6.8 z"
         id="path20"
         inkscape:connector-curvature="0"
         style="opacity:1;fill:#dadae1;fill-opacity:1"
         sodipodi:nodetypes="csccsccc" /></g><g
       transform="translate(20,1.19995)"
       id="g30"
       style="opacity:0.57099998;fill:#d9d9e0;fill-opacity:1">
		<g
   style="fill:#d9d9e0;fill-opacity:1"
   id="g26">
			<path
   style="fill:#d9d9e0;fill-opacity:1"
   d="m -140.5,416.9 c -2.1,1.7 -3.2,2.6 -3.2,2.6 -1.2,1.2 -1.9,2.7 -2,4.5 h 9.7 v -2.6 h -6.2 c 0.3,-0.5 1,-1.2 2.1,-1.9 1.4,-0.9 2.3,-1.6 2.7,-2.1 0.9,-1 1.3,-2.1 1.3,-3.3 0,-1.4 -0.5,-2.5 -1.4,-3.3 -0.9,-0.8 -2.1,-1.2 -3.5,-1.2 -3.1,0 -4.7,1.7 -4.7,5 h 2.7 c 0,-1.8 0.7,-2.7 2.1,-2.7 1.3,0 2,0.7 2,2.1 0.1,1.1 -0.4,2 -1.6,2.9 z"
   id="path24"
   inkscape:connector-curvature="0" />
		</g>
		<polygon
   style="fill:#d9d9e0;fill-opacity:1"
   points="-149,421.4 -156.1,421.4 -156.1,409.7 -159.1,409.7 -159.1,424 -149,424 "
   id="polygon28" />
	</g></g></g><path
   d="m 3.455775,442 c 0,0 -32.700002,-3.2 -50.600002,-3.2 -17.9,0 -48.299998,2.4 -48.299998,2.4 0,0 3.1,-44.7 4.8,-52 1.7,-7.3 7.7,-21.3 16.899998,-27.9 9.2,-6.6 11.9,-10.1 22.7,-10.1 10.8,0 25.4,6.4 34.6,21.4 9.200002,15 19.900002,69.4 19.900002,69.4 z"
   id="path18-1"
   inkscape:connector-curvature="0"
   style="fill:#000000;fill-opacity:0" /></svg>