<?xml version="1.0" encoding="UTF-8" standalone="no"?>
<!-- Created with Inkscape (http://www.inkscape.org/) -->

<svg
   xmlns:dc="http://purl.org/dc/elements/1.1/"
   xmlns:cc="http://creativecommons.org/ns#"
   xmlns:rdf="http://www.w3.org/1999/02/22-rdf-syntax-ns#"
   xmlns:svg="http://www.w3.org/2000/svg"
   xmlns="http://www.w3.org/2000/svg"
   xmlns:xlink="http://www.w3.org/1999/xlink"
   xmlns:sodipodi="http://sodipodi.sourceforge.net/DTD/sodipodi-0.dtd"
   xmlns:inkscape="http://www.inkscape.org/namespaces/inkscape"
   width="50.804359"
   height="40.252819"
   viewBox="0 0 13.441987 10.650225"
   version="1.1"
   id="svg8"
   inkscape:version="0.92.4 (5da689c313, 2019-01-14)"
   sodipodi:docname="meta.svg">
  <defs
     id="defs2">
    <linearGradient
       inkscape:collect="always"
       xlink:href="#linearGradient3959"
       id="linearGradient4940"
       gradientUnits="userSpaceOnUse"
       gradientTransform="matrix(0.63263343,0,0,0.63263343,202.08817,172.7434)"
       x1="-164.67029"
       y1="152.80399"
       x2="-164.67029"
       y2="165.42152" />
    <linearGradient
       inkscape:collect="always"
       id="linearGradient3959">
      <stop
         style="stop-color:#595959;stop-opacity:1"
         offset="0"
         id="stop3955" />
      <stop
         style="stop-color:#0a0c0f;stop-opacity:1"
         offset="1"
         id="stop3957" />
    </linearGradient>
    <filter
       style="color-interpolation-filters:sRGB"
       inkscape:label="Invert"
       id="filter1518">
      <feColorMatrix
         type="hueRotate"
         values="180"
         result="color1"
         id="feColorMatrix1514" />
      <feColorMatrix
         values="-1 0 0 0 1 0 -1 0 0 1 0 0 -1 0 1 -0.21 -0.72 -0.07 2 0 "
         result="color2"
         id="feColorMatrix1516" />
    </filter>
    <filter
       style="color-interpolation-filters:sRGB"
       inkscape:label="Invert"
       id="filter1524">
      <feColorMatrix
         type="hueRotate"
         values="180"
         result="color1"
         id="feColorMatrix1520" />
      <feColorMatrix
         values="-1 0 0 0 1 0 -1 0 0 1 0 0 -1 0 1 -0.21 -0.72 -0.07 2 0 "
         result="color2"
         id="feColorMatrix1522" />
    </filter>
    <filter
       style="color-interpolation-filters:sRGB"
       inkscape:label="Invert"
       id="filter1530">
      <feColorMatrix
         type="hueRotate"
         values="180"
         result="color1"
         id="feColorMatrix1526" />
      <feColorMatrix
         values="-1 0 0 0 1 0 -1 0 0 1 0 0 -1 0 1 -0.21 -0.72 -0.07 2 0 "
         result="color2"
         id="feColorMatrix1528" />
    </filter>
  </defs>
  <sodipodi:namedview
     id="base"
     pagecolor="#ffffff"
     bordercolor="#666666"
     borderopacity="1.0"
     inkscape:pageopacity="1"
     inkscape:pageshadow="2"
     inkscape:zoom="8"
     inkscape:cx="11.241401"
     inkscape:cy="21.535061"
     inkscape:document-units="px"
     inkscape:current-layer="layer1"
     showgrid="false"
     units="px"
     showguides="false"
     inkscape:window-width="1920"
     inkscape:window-height="1057"
     inkscape:window-x="3832"
     inkscape:window-y="898"
     inkscape:window-maximized="1"
     fit-margin-top="0"
     fit-margin-left="0"
     fit-margin-right="0"
     fit-margin-bottom="0"
     inkscape:pagecheckerboard="true" />
  <metadata
     id="metadata5">
    <rdf:RDF>
      <cc:Work
         rdf:about="">
        <dc:format>image/svg+xml</dc:format>
        <dc:type
           rdf:resource="http://purl.org/dc/dcmitype/StillImage" />
        <dc:title></dc:title>
      </cc:Work>
    </rdf:RDF>
  </metadata>
  <g
     inkscape:label="Background"
     inkscape:groupmode="layer"
     id="layer1"
     transform="translate(-91.099651,-268.68951)"
     style="display:inline">
    <rect
       style="display:inline;opacity:1;fill:#103019;fill-opacity:1;fill-rule:nonzero;stroke:none;stroke-width:0.001;stroke-miterlimit:4;stroke-dasharray:none;stroke-opacity:1"
       id="rect833"
       width="13.441892"
       height="10.650226"
       x="91.099701"
       y="268.68951" />
  </g>
  <g
     inkscape:groupmode="layer"
     id="layer2"
     inkscape:label="PS Button">
    <path
       transform="translate(-91.099651,-268.68951)"
       inkscape:connector-curvature="0"
       id="path-1"
       d="m 96.265684,268.69047 a 0.56942701,0.56942701 0 0 0 -0.56002,0.56918 v 4.82406 a 0.56942701,0.56942701 0 0 0 -0.0114,0.003 l -2.864819,1.01902 c 0,0 -0.71971,0.20972 -1.26748,0.61558 -0.1874,0.13899 -0.34694,0.33206 -0.42107,0.57343 -0.0741,0.24137 -0.0456,0.51842 0.0634,0.74113 0.21728,0.44387 0.65382,0.69843 1.22826,0.86111 1.10016,0.35935 2.21947,0.43405 3.275101,0.27266 a 0.56942701,0.56942701 0 0 0 0.395249,0.5064 l 2.00698,0.63718 a 0.56942701,0.56942701 0 0 0 0.541051,-0.1095 0.56942701,0.56942701 0 0 0 0.204659,-0.0328 l 4.387285,-1.5761 a 0.56942701,0.56942701 0 0 0 0.003,-0.001 c 0,0 0.18001,-0.0661 0.39099,-0.17556 0.211,-0.1095 0.46943,-0.24806 0.6895,-0.52569 a 0.56942701,0.56942701 0 0 0 0,-3.2e-4 c 0.22894,-0.28918 0.307,-0.80448 0.0762,-1.17693 -0.22847,-0.36861 -0.61429,-0.58597 -1.14977,-0.75714 -0.56843,-0.21347 -1.19784,-0.3149 -1.82097,-0.35798 0.29917,-0.42553 0.45344,-0.98938 0.45344,-1.63592 0,-0.88517 -0.16434,-1.63025 -0.6205,-2.21752 -0.45615,-0.58729 -1.14045,-0.95854 -2.040315,-1.26748 a 0.56942701,0.56942701 0 0 0 -0.003,-0.001 c -0.68989,-0.23256 -1.92863,-0.60901 -2.842919,-0.77873 a 0.56942701,0.56942701 0 0 0 -0.113441,-0.01 z m 0.57898,1.29396 c 0.49598,0.12202 0.9465,0.24446 1.40184,0.38545 -0.116759,0.0551 -0.238399,0.11094 -0.306979,0.20039 -0.18522,0.24164 -0.22688,0.49859 -0.22688,0.75781 v 6.66497 l -0.867981,-0.27559 z m 1.996521,0.29391 0.0213,0.007 c -0.003,-0.001 -0.007,10e-4 -0.01,3.4e-4 -0.004,-0.001 -0.007,-0.006 -0.0114,-0.007 z m 0.65483,0.56132 c 0.389859,0.18974 0.699075,0.38573 0.870245,0.60612 0.25705,0.33093 0.38087,0.7674 0.38087,1.51887 0,0.68044 -0.20047,1.01579 -0.40048,1.1524 -0.14841,0.10137 -0.391256,0.10449 -0.696665,0.0222 v -2.55098 c 0,-0.20939 -0.01,-0.44325 -0.11769,-0.69831 -0.008,-0.0175 -0.0275,-0.0329 -0.0363,-0.0503 z m 3.249265,5.15654 c 0.0375,0.0129 0.0844,0.0181 0.12063,0.0317 a 0.56942701,0.56942701 0 0 0 0.0301,0.01 c 0.25014,0.079 0.37389,0.1533 0.44984,0.20857 -0.0611,0.0491 -0.12842,0.10705 -0.23277,0.16118 -0.14417,0.0749 -0.25924,0.11703 -0.25924,0.11703 l -0.3485,0.12521 c 0.0982,-0.0816 0.1856,-0.19297 0.2429,-0.38282 0.0251,-0.083 0.0111,-0.17848 -0.003,-0.27134 z m -9.510495,0.17458 c -0.11347,0.0819 -0.21279,0.20406 -0.2769,0.4165 -0.0253,0.0839 -0.0115,0.18046 0.003,0.27429 -0.0634,-0.0186 -0.1269,-0.0295 -0.19027,-0.0503 a 0.56942701,0.56942701 0 0 0 -0.0238,-0.007 c -0.24969,-0.0703 -0.36789,-0.147 -0.4384,-0.20302 0.29646,-0.19327 0.87648,-0.41257 0.87648,-0.41257 a 0.56942701,0.56942701 0 0 0 0.0134,-0.005 z"
       style="display:inline;color:#000000;font-style:normal;font-variant:normal;font-weight:normal;font-stretch:normal;font-size:medium;line-height:normal;font-family:sans-serif;font-variant-ligatures:normal;font-variant-position:normal;font-variant-caps:normal;font-variant-numeric:normal;font-variant-alternates:normal;font-feature-settings:normal;text-indent:0;text-align:start;text-decoration:none;text-decoration-line:none;text-decoration-style:solid;text-decoration-color:#000000;letter-spacing:normal;word-spacing:normal;text-transform:none;writing-mode:lr-tb;direction:ltr;text-orientation:mixed;dominant-baseline:auto;baseline-shift:baseline;text-anchor:start;white-space:normal;shape-padding:0;clip-rule:nonzero;overflow:visible;visibility:visible;opacity:1;isolation:auto;mix-blend-mode:normal;color-interpolation:sRGB;color-interpolation-filters:linearRGB;solid-color:#000000;solid-opacity:1;vector-effect:none;fill:#030202;fill-opacity:0.6525974;fill-rule:evenodd;stroke:none;stroke-width:1.79999995;stroke-linecap:round;stroke-linejoin:round;stroke-miterlimit:4;stroke-dasharray:none;stroke-dashoffset:0;stroke-opacity:1;filter:url(#filter1530);color-rendering:auto;image-rendering:auto;shape-rendering:auto;text-rendering:auto;enable-background:accumulate" />
    <path
       transform="translate(-91.099651,-268.68951)"
       inkscape:connector-curvature="0"
       style="display:inline;opacity:1;fill:#1a1b20;fill-opacity:1;fill-rule:evenodd;stroke:none;stroke-width:0.2;stroke-linecap:round;stroke-linejoin:round;stroke-miterlimit:4;stroke-dasharray:none;filter:url(#filter1524)"
       d="m 96.275164,269.25964 v 8.87431 l 2.006981,0.63716 v -7.44303 c 0,-0.34878 0.155889,-0.58151 0.40669,-0.50118 0.3275,0.091 0.39165,0.41236 0.39165,0.76141 v 2.97205 c 1.251205,0.60406 2.236145,-4.8e-4 2.236145,-1.59571 0,-1.63665 -0.57644,-2.36292 -2.276355,-2.94655 -0.668431,-0.22533 -1.911661,-0.60003 -2.765111,-0.75846 z m -0.390019,5.36415 -2.87822,1.02359 c 0,0 -0.69646,0.22848 -1.10598,0.53191 -0.4431,0.32861 -0.28102,0.89891 0.69111,1.17266 1.04297,0.34374 2.101279,0.41147 3.09498,0.24912 0.0649,-0.0111 0.1351,-0.0222 0.19811,-0.0333 v -1.04387 l -0.99351,0.3606 c -0.36641,0.13157 -0.90488,0.15919 -1.20242,0.0618 -0.29727,-0.0975 -0.24098,-0.28327 0.124879,-0.41455 l 2.071051,-0.74112 z m 5.083305,0.50607 c -0.2364,-0.002 -0.46701,0.01 -0.68554,0.0336 -0.874175,0.0968 -1.496005,0.3168 -1.496005,0.3168 l -0.1239,0.0422 v 1.20601 l 2.151475,-0.7578 c 0.36669,-0.13182 0.90482,-0.15981 1.20209,-0.0622 0.29783,0.0975 0.24152,0.28325 -0.12488,0.41453 l -3.228685,1.15044 v 1.16221 l 4.387295,-1.5761 c 0,0 0.58998,-0.21675 0.83072,-0.52046 0.24043,-0.30369 0.13357,-0.74463 -0.81339,-1.04385 -0.63023,-0.23891 -1.38994,-0.36042 -2.09918,-0.36551 z"
       id="path3945" />
    <path
       transform="translate(-91.099651,-268.68951)"
       inkscape:connector-curvature="0"
       id="path4936"
       d="m 96.274115,269.1587 a 0.10001,0.10001 0 0 0 -0.0996,0.10156 v 8.87305 a 0.10001,0.10001 0 0 0 0.0703,0.0957 l 2.007809,0.63672 a 0.10001,0.10001 0 0 0 0.12891,-0.0937 v -7.44336 c 0,-0.15949 0.0397,-0.28615 0.0898,-0.35156 0.0502,-0.0654 0.0945,-0.0845 0.187501,-0.0547 a 0.10001,0.10001 0 0 0 0.004,0 c 0.136119,0.0378 0.20383,0.11224 0.25195,0.22656 0.0481,0.11432 0.0664,0.27106 0.0664,0.43945 v 2.97266 a 0.10001,0.10001 0 0 0 0.0566,0.0898 c 0.64662,0.31217 1.247315,0.31887 1.685545,0.0195 0.43822,-0.29934 0.69337,-0.88689 0.69337,-1.70508 0,-0.83007 -0.14741,-1.44807 -0.5215,-1.92969 -0.37408,-0.48161 -0.963535,-0.8165 -1.822255,-1.11132 a 0.10001,0.10001 0 0 0 0,-0.002 c -0.6722,-0.2266 -1.91516,-0.60131 -2.7793,-0.76172 a 0.10001,0.10001 0 0 0 -0.0195,-0.002 z m 0.10156,0.23242 c 0.83775,0.16708 1.99696,0.50831 2.63281,0.72266 v -0.002 c 0.841199,0.2888 1.389395,0.61028 1.728515,1.04688 0.33911,0.43659 0.48047,1.00005 0.48047,1.80664 0,0.77703 -0.23842,1.28834 -0.60547,1.53906 -0.35308,0.24117 -0.856655,0.22772 -1.431635,-0.0312 v -2.88477 c 0,-0.18065 -0.0142,-0.35925 -0.0801,-0.51562 -0.0656,-0.15593 -0.192341,-0.28832 -0.38281,-0.3418 h -0.002 c -0.15648,-0.0483 -0.31458,0.008 -0.40429,0.125 -0.0905,0.11807 -0.12891,0.28337 -0.12891,0.47266 v 7.30664 l -1.80664,-0.57422 z m -0.50391,5.13282 a 0.10001,0.10001 0 0 0 -0.0195,0.006 l -2.878901,1.02343 c -0.002,6.4e-4 -0.69962,0.22396 -1.13281,0.54493 -0.12424,0.0921 -0.21067,0.20784 -0.25,0.33593 -0.0393,0.12809 -0.028,0.26757 0.0352,0.39649 0.12621,0.25783 0.43735,0.47579 0.93945,0.61718 1.0571,0.3477 2.1307,0.41664 3.13868,0.25196 0.0639,-0.011 0.13481,-0.0218 0.19922,-0.0332 a 0.10001,0.10001 0 0 0 0.082,-0.0996 v -1.04297 a 0.10001,0.10001 0 0 0 -0.13477,-0.0937 l -0.99219,0.35937 c -0.341269,0.12255 -0.880339,0.14705 -1.138669,0.0625 -0.0645,-0.0212 -0.10239,-0.0467 -0.11523,-0.0606 -0.0129,-0.0138 -0.008,-0.006 -0.006,-0.0117 0.003,-0.0114 0.0797,-0.0932 0.249999,-0.15429 l 2.0704,-0.74028 a 0.10001,0.10001 0 0 0 0.0664,-0.0937 v -1.16797 a 0.10001,0.10001 0 0 0 -0.11329,-0.0996 z m -0.0859,0.24023 v 0.95508 l -2.00586,0.71875 c -0.19551,0.0702 -0.3312,0.14649 -0.37305,0.28516 -0.0209,0.0693 0.002,0.1506 0.0508,0.20312 0.0488,0.0525 0.11703,0.0876 0.20117,0.11523 0.33675,0.11021 0.87408,0.0781 1.26563,-0.0625 a 0.10001,0.10001 0 0 0 0.002,0 l 0.85938,-0.3125 v 0.81641 c -0.0388,0.006 -0.0767,0.0129 -0.11524,0.0195 -0.97818,0.15981 -2.01929,0.0926 -3.04687,-0.2461 a 0.10001,0.10001 0 0 0 -0.004,0 c -0.47003,-0.13235 -0.72738,-0.33576 -0.81446,-0.51367 -0.0435,-0.089 -0.0499,-0.17018 -0.0254,-0.25 0.0245,-0.0798 0.0824,-0.16025 0.17969,-0.23242 0.38523,-0.28543 1.07812,-0.51758 1.07812,-0.51758 a 0.10001,0.10001 0 0 0 0.002,-0.002 z m 5.169915,0.26563 a 0.10001,0.10001 0 0 0 -0.006,0.002 c -0.23337,-10e-4 -0.46164,0.01 -0.67773,0.0332 -0.885495,0.0981 -1.519535,0.32031 -1.519535,0.32031 l -0.12109,0.043 a 0.10001,0.10001 0 0 0 -0.0684,0.0937 v 1.20698 a 0.10001,0.10001 0 0 0 0.13281,0.0937 l 2.152345,-0.75781 c 0.34162,-0.1228 0.87882,-0.14526 1.13672,-0.0606 0.0646,0.0212 0.10233,0.0467 0.11523,0.0606 0.0129,0.0139 0.01,0.004 0.008,0.01 -0.003,0.0113 -0.0794,0.0932 -0.25,0.1543 l -3.228505,1.15039 a 0.10001,0.10001 0 0 0 -0.0664,0.0937 v 1.16211 a 0.10001,0.10001 0 0 0 0.13281,0.0937 l 4.388675,-1.57618 c 0,0 0.15248,-0.0552 0.33593,-0.15039 0.18346,-0.0952 0.40119,-0.22645 0.53907,-0.40039 0.13931,-0.17597 0.18029,-0.42026 0.0449,-0.63868 -0.13537,-0.21841 -0.42035,-0.40896 -0.90625,-0.5625 -0.64393,-0.2435 -1.41004,-0.36593 -2.12891,-0.37109 a 0.10001,0.10001 0 0 0 -0.0137,0 z m 0.0117,0.19921 c 0.69833,0.005 1.44862,0.12593 2.06445,0.35938 a 0.10001,0.10001 0 0 0 0.006,0.002 c 0.46105,0.14569 0.70218,0.32573 0.79688,0.47851 0.0947,0.15279 0.0699,0.28048 -0.0312,0.40821 -0.10287,0.12976 -0.30289,0.25855 -0.47461,0.34765 -0.17172,0.0891 -0.3125,0.14063 -0.3125,0.14063 l -4.253905,1.5293 v -0.95122 l 3.161905,-1.12696 c 0.19577,-0.0701 0.33312,-0.14639 0.375,-0.28515 0.0209,-0.0694 -0.004,-0.15064 -0.0527,-0.20313 -0.0489,-0.0525 -0.11495,-0.0877 -0.19921,-0.11523 -0.33665,-0.11058 -0.87583,-0.0764 -1.26758,0.0645 l -2.017575,0.70898 v -0.99219 l 0.0566,-0.0195 a 0.10001,0.10001 0 0 0 0.002,0 c 0,0 0.6098,-0.21695 1.472655,-0.3125 0.21473,-0.0232 0.44148,-0.0354 0.67383,-0.0332 z"
       style="display:inline;color:#000000;font-style:normal;font-variant:normal;font-weight:normal;font-stretch:normal;font-size:medium;line-height:normal;font-family:sans-serif;font-variant-ligatures:normal;font-variant-position:normal;font-variant-caps:normal;font-variant-numeric:normal;font-variant-alternates:normal;font-feature-settings:normal;text-indent:0;text-align:start;text-decoration:none;text-decoration-line:none;text-decoration-style:solid;text-decoration-color:#000000;letter-spacing:normal;word-spacing:normal;text-transform:none;writing-mode:lr-tb;direction:ltr;text-orientation:mixed;dominant-baseline:auto;baseline-shift:baseline;text-anchor:start;white-space:normal;shape-padding:0;clip-rule:nonzero;overflow:visible;visibility:visible;opacity:1;isolation:auto;mix-blend-mode:normal;color-interpolation:sRGB;color-interpolation-filters:linearRGB;solid-color:#000000;solid-opacity:1;vector-effect:none;fill:url(#linearGradient4940);fill-opacity:1;fill-rule:evenodd;stroke:none;stroke-width:0.2;stroke-linecap:round;stroke-linejoin:round;stroke-miterlimit:4;stroke-dasharray:none;stroke-dashoffset:0;stroke-opacity:1;filter:url(#filter1518);color-rendering:auto;image-rendering:auto;shape-rendering:auto;text-rendering:auto;enable-background:accumulate" />
  </g>
</svg>
